<svg xmlns="http://www.w3.org/2000/svg" version="1.1" width="256" height="256" viewBox="0 0 256 256">
    <!-- YouTube Logo -->
    <!-- https://www.iconpacks.net/free-icon/youtube-logo-2431.html -->
    <g transform="translate(1.4065934065934016 1.4065934065934016) scale(2.81 2.81)">
        <path d="M 88.119 23.338 c -1.035 -3.872 -4.085 -6.922 -7.957 -7.957 C 73.144 13.5 45 13.5 45 13.5 s -28.144 0 -35.162 1.881 c -3.872 1.035 -6.922 4.085 -7.957 7.957 C 0 30.356 0 45 0 45 s 0 14.644 1.881 21.662 c 1.035 3.872 4.085 6.922 7.957 7.957 C 16.856 76.5 45 76.5 45 76.5 s 28.144 0 35.162 -1.881 c 3.872 -1.035 6.922 -4.085 7.957 -7.957 C 90 59.644 90 45 90 45 S 90 30.356 88.119 23.338 z" fill="#FF0000"/>
        <polygon points="36,58.5 59.38,45 36,31.5" fill="#FFFFFF"/>
    </g>

    <!-- Cursor Icon-->
    <!-- https://www.iconpacks.net/free-icon/click-2387.html -->
    <g transform="translate(80 130) scale(1)">
        <path d="M 71.656 37.966 h -0.503 c -1.183 0 -2.298 0.287 -3.282 0.795 c -0.575 -3.389 -3.532 -5.978 -7.082 -5.978 h -0.503 c -1.326 0 -2.569 0.361 -3.637 0.99 c -1.021 -2.724 -3.652 -4.668 -6.729 -4.668 h -0.502 c -1.143 0 -2.223 0.268 -3.183 0.744 V 18.819 c 0 -3.96 -3.222 -7.183 -7.183 -7.183 h -0.502 c -3.96 0 -7.183 3.222 -7.183 7.183 v 27.414 l -3.479 2.641 c -2.638 2.003 -4.311 4.917 -4.71 8.205 c -0.398 3.289 0.529 6.519 2.612 9.094 l 10.604 13.109 v 5.273 c 0 3.002 2.442 5.444 5.444 5.444 h 26.334 c 3.002 0 5.444 -2.442 5.444 -5.444 l 0.001 -5.009 c 3.37 -4.203 5.218 -9.433 5.218 -14.809 v -19.59 C 78.839 41.188 75.617 37.966 71.656 37.966 z M 74.839 64.738 c 0 4.674 -1.683 9.215 -4.738 12.787 c -0.311 0.362 -0.48 0.823 -0.48 1.3 v 5.73 c 0 0.797 -0.647 1.444 -1.444 1.444 H 41.841 c -0.796 0 -1.444 -0.647 -1.444 -1.444 v -5.981 c 0 -0.458 -0.157 -0.902 -0.445 -1.258 l -11.05 -13.659 c -1.396 -1.727 -2.019 -3.892 -1.751 -6.097 c 0.267 -2.204 1.389 -4.158 3.157 -5.501 l 1.06 -0.804 v 6.684 c 0 1.104 0.896 2 2 2 s 2 -0.896 2 -2 V 47.246 c 0 -0.014 0 -0.028 0 -0.042 V 18.819 c 0 -1.755 1.428 -3.183 3.183 -3.183 h 0.502 c 1.755 0 3.183 1.428 3.183 3.183 v 17.469 c 0 0 0 0 0 0.001 s 0 0 0 0.001 l 0.011 14.531 c 0.001 1.104 0.896 1.998 2 1.998 c 0 0 0.001 0 0.001 0 c 1.104 -0.001 2 -0.896 1.999 -2.002 l -0.011 -14.528 c 0 -1.754 1.428 -3.182 3.183 -3.182 h 0.502 c 1.755 0 3.183 1.428 3.183 3.182 v 3.678 c 0 0 0 0.001 0 0.001 c 0 0 0 0.001 0 0.001 l 0.011 10.853 c 0.001 1.104 0.896 1.998 2 1.998 c 0.001 0 0.001 0 0.002 0 c 1.104 -0.001 1.999 -0.897 1.998 -2.002 l -0.011 -10.851 c 0 -1.754 1.428 -3.182 3.183 -3.182 h 0.503 c 1.755 0 3.183 1.428 3.183 3.182 v 4.602 c -0.008 0.072 -0.022 0.143 -0.021 0.217 l 0.011 6.037 c 0.002 1.103 0.897 1.996 2 1.996 c 0.001 0 0.002 0 0.004 0 c 1.104 -0.002 1.998 -0.899 1.996 -2.004 l -0.01 -5.463 c 0.007 -0.068 0.02 -0.133 0.02 -0.203 c 0 -1.755 1.428 -3.183 3.182 -3.183 h 0.503 c 1.755 0 3.183 1.428 3.183 3.183 V 64.738 z" fill="#000000"/>
    </g>

    <!-- Cross-out Line -->
    <line x1="100" y1="150" x2="160" y2="210" stroke="#000000" stroke-width="12" stroke-linecap="round"/>
</svg>
